<svg width="95" height="27" viewBox="0 0 95 27" fill="none" xmlns="http://www.w3.org/2000/svg">
<path d="M4.184 26V6.056L0.044 7.028V3.5L6.128 0.799998H8.972V26H4.184ZM16.5942 26V6.056L12.4542 7.028V3.5L18.5382 0.799998H21.3822V26H16.5942ZM36.6003 26.432C34.2723 26.432 32.2803 25.892 30.6243 24.812C28.9683 23.708 27.6843 22.184 26.7723 20.24C25.8843 18.272 25.4403 15.992 25.4403 13.4C25.4403 10.832 25.8843 8.564 26.7723 6.596C27.6843 4.628 28.9683 3.104 30.6243 2.024C32.2803 0.92 34.2723 0.368 36.6003 0.368C38.9283 0.368 40.9203 0.92 42.5763 2.024C44.2323 3.104 45.5043 4.628 46.3923 6.596C47.3043 8.564 47.7603 10.832 47.7603 13.4C47.7603 15.992 47.3043 18.272 46.3923 20.24C45.5043 22.184 44.2323 23.708 42.5763 24.812C40.9203 25.892 38.9283 26.432 36.6003 26.432ZM36.6003 22.292C38.4963 22.292 40.0443 21.5 41.2443 19.916C42.4443 18.332 43.0443 16.16 43.0443 13.4C43.0443 10.64 42.4443 8.468 41.2443 6.884C40.0443 5.3 38.4963 4.508 36.6003 4.508C34.6803 4.508 33.1203 5.3 31.9203 6.884C30.7443 8.468 30.1563 10.64 30.1563 13.4C30.1563 16.16 30.7443 18.332 31.9203 19.916C33.1203 21.5 34.6803 22.292 36.6003 22.292ZM62.1589 26.432C59.8309 26.432 57.8389 25.892 56.1829 24.812C54.5269 23.708 53.2429 22.184 52.3309 20.24C51.4429 18.272 50.9989 15.992 50.9989 13.4C50.9989 10.832 51.4429 8.564 52.3309 6.596C53.2429 4.628 54.5269 3.104 56.1829 2.024C57.8389 0.92 59.8309 0.368 62.1589 0.368C64.4869 0.368 66.4789 0.92 68.1349 2.024C69.7909 3.104 71.0629 4.628 71.9509 6.596C72.8629 8.564 73.3189 10.832 73.3189 13.4C73.3189 15.992 72.8629 18.272 71.9509 20.24C71.0629 22.184 69.7909 23.708 68.1349 24.812C66.4789 25.892 64.4869 26.432 62.1589 26.432ZM62.1589 22.292C64.0549 22.292 65.6029 21.5 66.8029 19.916C68.0029 18.332 68.6029 16.16 68.6029 13.4C68.6029 10.64 68.0029 8.468 66.8029 6.884C65.6029 5.3 64.0549 4.508 62.1589 4.508C60.2389 4.508 58.6789 5.3 57.4789 6.884C56.3029 8.468 55.7149 10.64 55.7149 13.4C55.7149 16.16 56.3029 18.332 57.4789 19.916C58.6789 21.5 60.2389 22.292 62.1589 22.292ZM76.9535 17.504V13.652H83.7215V7.424H87.6455V13.652H94.3775V17.504H87.6455V23.732H83.7215V17.504H76.9535Z" fill="#222222"/>
</svg>
