<svg width="72" height="64" viewBox="0 0 72 64" fill="none" xmlns="http://www.w3.org/2000/svg">
<path d="M66.2344 32.9581C69.461 32.6723 72 29.956 72 26.6562V6.96875C72 3.47942 69.1612 0.640625 65.6719 0.640625H44.7188C41.2294 0.640625 38.3906 3.47942 38.3906 6.96875V15.2656H12.0938C8.60442 15.2656 5.76562 18.1044 5.76562 21.5938V46.9062C5.76562 47.6457 5.8943 48.3554 6.12844 49.0156H3.79688C1.70325 49.0156 0 50.7189 0 52.8125C0 58.628 4.73133 63.3594 10.5469 63.3594H61.4531C67.2687 63.3594 72 58.628 72 52.8125C72 50.7189 70.2968 49.0156 68.2031 49.0156H65.8716C66.1057 48.3554 66.2344 47.6457 66.2344 46.9062V32.9581ZM42.6094 6.96875C42.6094 5.80564 43.5556 4.85938 44.7188 4.85938H65.6719C66.835 4.85938 67.7812 5.80564 67.7812 6.96875V26.6562C67.7812 27.8194 66.835 28.7656 65.6719 28.7656H46.125C45.7296 28.7656 45.3423 28.8767 45.007 29.0863L40.754 31.7445L42.5205 25.8561C42.5794 25.6595 42.6094 25.4553 42.6094 25.25V6.96875ZM61.4531 59.1406H10.5469C7.1993 59.1406 4.45064 56.5277 4.23267 53.2344H67.7673C67.5494 56.5277 64.8007 59.1406 61.4531 59.1406ZM20.1094 33.125C20.1094 31.8068 21.1818 30.7344 22.5 30.7344C23.8182 30.7344 24.8906 31.8068 24.8906 33.125C24.8906 34.4432 23.8182 35.5156 22.5 35.5156C21.1818 35.5156 20.1094 34.4432 20.1094 33.125ZM18.9844 42.125C18.9844 40.8515 20.6272 39.7344 22.5 39.7344C23.5043 39.7344 24.472 40.0477 25.1549 40.594C25.4765 40.8512 26.0156 41.3921 26.0156 42.125V49.0156H18.9844V42.125ZM30.2344 49.0156V42.125C30.2344 40.3011 29.3437 38.5423 27.7903 37.2997C27.7554 37.2718 27.719 37.2456 27.6836 37.2183C28.5751 36.0916 29.1094 34.6699 29.1094 33.125C29.1094 29.4806 26.1444 26.5156 22.5 26.5156C18.8556 26.5156 15.8906 29.4806 15.8906 33.125C15.8906 34.6717 16.4261 36.0947 17.3194 37.222C15.7523 38.4323 14.7656 40.182 14.7656 42.125V49.0156H12.0938C10.9306 49.0156 9.98438 48.0694 9.98438 46.9062V21.5938C9.98438 20.4306 10.9306 19.4844 12.0938 19.4844H38.3906V24.9405L36.7131 30.5322C36.2036 32.2303 36.7851 34.0228 38.1946 35.0983C38.9538 35.6776 39.85 35.9704 40.7505 35.9704C41.5216 35.9704 42.2961 35.7555 42.9896 35.322L46.73 32.9844H62.0156V46.9062C62.0156 48.0694 61.0694 49.0156 59.9062 49.0156H30.2344Z" fill="#086CF9"/>
<path d="M57.375 19.7656H52.875C51.7101 19.7656 50.7656 20.7101 50.7656 21.875C50.7656 23.0399 51.7101 23.9844 52.875 23.9844H57.375C58.5399 23.9844 59.4844 23.0399 59.4844 21.875C59.4844 20.7101 58.5399 19.7656 57.375 19.7656Z" fill="#086CF9"/>
<path d="M49.5 13.8594H60.75C61.9149 13.8594 62.8594 12.9149 62.8594 11.75C62.8594 10.5851 61.9149 9.64062 60.75 9.64062H49.5C48.3351 9.64062 47.3906 10.5851 47.3906 11.75C47.3906 12.9149 48.3351 13.8594 49.5 13.8594Z" fill="#086CF9"/>
</svg>
