<svg width="106" height="27" viewBox="0 0 106 27" fill="none" xmlns="http://www.w3.org/2000/svg">
<path d="M4.184 26V6.056L0.044 7.028V3.5L6.128 0.799998H8.972V26H4.184ZM25.3782 26V21.32H12.9582V17.648L24.7662 0.799998H29.9862V17.324H33.2982V21.32H29.9862V26H25.3782ZM17.8902 17.324H25.6662V5.876L17.8902 17.324ZM47.2527 26.432C44.9247 26.432 42.9327 25.892 41.2767 24.812C39.6207 23.708 38.3367 22.184 37.4247 20.24C36.5367 18.272 36.0927 15.992 36.0927 13.4C36.0927 10.832 36.5367 8.564 37.4247 6.596C38.3367 4.628 39.6207 3.104 41.2767 2.024C42.9327 0.92 44.9247 0.368 47.2527 0.368C49.5807 0.368 51.5727 0.92 53.2287 2.024C54.8847 3.104 56.1567 4.628 57.0447 6.596C57.9567 8.564 58.4127 10.832 58.4127 13.4C58.4127 15.992 57.9567 18.272 57.0447 20.24C56.1567 22.184 54.8847 23.708 53.2287 24.812C51.5727 25.892 49.5807 26.432 47.2527 26.432ZM47.2527 22.292C49.1487 22.292 50.6967 21.5 51.8967 19.916C53.0967 18.332 53.6967 16.16 53.6967 13.4C53.6967 10.64 53.0967 8.468 51.8967 6.884C50.6967 5.3 49.1487 4.508 47.2527 4.508C45.3327 4.508 43.7727 5.3 42.5727 6.884C41.3967 8.468 40.8087 10.64 40.8087 13.4C40.8087 16.16 41.3967 18.332 42.5727 19.916C43.7727 21.5 45.3327 22.292 47.2527 22.292ZM72.8113 26.432C70.4833 26.432 68.4913 25.892 66.8353 24.812C65.1793 23.708 63.8953 22.184 62.9833 20.24C62.0953 18.272 61.6513 15.992 61.6513 13.4C61.6513 10.832 62.0953 8.564 62.9833 6.596C63.8953 4.628 65.1793 3.104 66.8353 2.024C68.4913 0.92 70.4833 0.368 72.8113 0.368C75.1393 0.368 77.1313 0.92 78.7873 2.024C80.4433 3.104 81.7153 4.628 82.6033 6.596C83.5153 8.564 83.9713 10.832 83.9713 13.4C83.9713 15.992 83.5153 18.272 82.6033 20.24C81.7153 22.184 80.4433 23.708 78.7873 24.812C77.1313 25.892 75.1393 26.432 72.8113 26.432ZM72.8113 22.292C74.7073 22.292 76.2553 21.5 77.4553 19.916C78.6553 18.332 79.2553 16.16 79.2553 13.4C79.2553 10.64 78.6553 8.468 77.4553 6.884C76.2553 5.3 74.7073 4.508 72.8113 4.508C70.8913 4.508 69.3313 5.3 68.1313 6.884C66.9553 8.468 66.3673 10.64 66.3673 13.4C66.3673 16.16 66.9553 18.332 68.1313 19.916C69.3313 21.5 70.8913 22.292 72.8113 22.292ZM87.6058 17.504V13.652H94.3738V7.424H98.2978V13.652H105.03V17.504H98.2978V23.732H94.3738V17.504H87.6058Z" fill="#222222"/>
</svg>
