<svg width="92" height="27" viewBox="0 0 92 27" fill="none" xmlns="http://www.w3.org/2000/svg">
<path d="M9.34 26.432C7.612 26.432 6.052 26.132 4.66 25.532C3.268 24.908 2.152 24.032 1.312 22.904C0.496 21.776 0.0880001 20.468 0.0880001 18.98C0.0880001 17.444 0.484 16.1 1.276 14.948C2.092 13.796 3.16 12.968 4.48 12.464C3.328 11.96 2.416 11.24 1.744 10.304C1.072 9.344 0.736 8.276 0.736 7.1C0.736 5.9 1.06 4.796 1.708 3.788C2.356 2.756 3.316 1.928 4.588 1.304C5.884 0.679999 7.468 0.368 9.34 0.368C11.212 0.368 12.784 0.679999 14.056 1.304C15.328 1.928 16.288 2.756 16.936 3.788C17.584 4.796 17.908 5.9 17.908 7.1C17.908 8.252 17.56 9.32 16.864 10.304C16.192 11.264 15.292 11.984 14.164 12.464C15.508 12.968 16.576 13.796 17.368 14.948C18.16 16.1 18.556 17.444 18.556 18.98C18.556 20.468 18.148 21.776 17.332 22.904C16.516 24.032 15.4 24.908 13.984 25.532C12.592 26.132 11.044 26.432 9.34 26.432ZM9.34 11.096C10.588 11.096 11.572 10.772 12.292 10.124C13.012 9.476 13.372 8.648 13.372 7.64C13.372 6.536 13.012 5.672 12.292 5.048C11.596 4.424 10.612 4.112 9.34 4.112C8.044 4.112 7.048 4.424 6.352 5.048C5.656 5.672 5.308 6.536 5.308 7.64C5.308 8.672 5.656 9.512 6.352 10.16C7.072 10.784 8.068 11.096 9.34 11.096ZM9.34 22.58C10.876 22.58 12.04 22.208 12.832 21.464C13.624 20.696 14.02 19.736 14.02 18.584C14.02 17.312 13.6 16.316 12.76 15.596C11.944 14.876 10.804 14.516 9.34 14.516C7.876 14.516 6.712 14.876 5.848 15.596C5.008 16.316 4.588 17.312 4.588 18.584C4.588 19.736 4.984 20.696 5.776 21.464C6.592 22.208 7.78 22.58 9.34 22.58ZM33.4206 26.432C31.0926 26.432 29.1006 25.892 27.4446 24.812C25.7886 23.708 24.5046 22.184 23.5926 20.24C22.7046 18.272 22.2606 15.992 22.2606 13.4C22.2606 10.832 22.7046 8.564 23.5926 6.596C24.5046 4.628 25.7886 3.104 27.4446 2.024C29.1006 0.92 31.0926 0.368 33.4206 0.368C35.7486 0.368 37.7406 0.92 39.3966 2.024C41.0526 3.104 42.3246 4.628 43.2126 6.596C44.1246 8.564 44.5806 10.832 44.5806 13.4C44.5806 15.992 44.1246 18.272 43.2126 20.24C42.3246 22.184 41.0526 23.708 39.3966 24.812C37.7406 25.892 35.7486 26.432 33.4206 26.432ZM33.4206 22.292C35.3166 22.292 36.8646 21.5 38.0646 19.916C39.2646 18.332 39.8646 16.16 39.8646 13.4C39.8646 10.64 39.2646 8.468 38.0646 6.884C36.8646 5.3 35.3166 4.508 33.4206 4.508C31.5006 4.508 29.9406 5.3 28.7406 6.884C27.5646 8.468 26.9766 10.64 26.9766 13.4C26.9766 16.16 27.5646 18.332 28.7406 19.916C29.9406 21.5 31.5006 22.292 33.4206 22.292ZM58.9792 26.432C56.6512 26.432 54.6592 25.892 53.0032 24.812C51.3472 23.708 50.0632 22.184 49.1512 20.24C48.2632 18.272 47.8192 15.992 47.8192 13.4C47.8192 10.832 48.2632 8.564 49.1512 6.596C50.0632 4.628 51.3472 3.104 53.0032 2.024C54.6592 0.92 56.6512 0.368 58.9792 0.368C61.3072 0.368 63.2992 0.92 64.9552 2.024C66.6112 3.104 67.8832 4.628 68.7712 6.596C69.6832 8.564 70.1392 10.832 70.1392 13.4C70.1392 15.992 69.6832 18.272 68.7712 20.24C67.8832 22.184 66.6112 23.708 64.9552 24.812C63.2992 25.892 61.3072 26.432 58.9792 26.432ZM58.9792 22.292C60.8752 22.292 62.4232 21.5 63.6232 19.916C64.8232 18.332 65.4232 16.16 65.4232 13.4C65.4232 10.64 64.8232 8.468 63.6232 6.884C62.4232 5.3 60.8752 4.508 58.9792 4.508C57.0592 4.508 55.4992 5.3 54.2992 6.884C53.1232 8.468 52.5352 10.64 52.5352 13.4C52.5352 16.16 53.1232 18.332 54.2992 19.916C55.4992 21.5 57.0592 22.292 58.9792 22.292ZM73.7738 17.504V13.652H80.5418V7.424H84.4658V13.652H91.1978V17.504H84.4658V23.732H80.5418V17.504H73.7738Z" fill="#222222"/>
</svg>
