<svg width="72" height="72" viewBox="0 0 72 72" fill="none" xmlns="http://www.w3.org/2000/svg">
<path d="M21.4645 25.3047L25.9456 29.7856L36 19.8812V23.9887H40.2353V12.7051H28.9517V16.9404H32.9503L25.968 23.8183L21.4645 19.315L3.44897 37.3306L6.44375 40.3254L21.4645 25.3047Z" fill="#086CF9"/>
<path d="M12.7058 71.9997H21.1764C21.1764 70.603 21.1764 48.0882 21.1764 46.5879H12.7058V71.9997Z" fill="#086CF9"/>
<path d="M25.4116 72.0006H33.8822C33.8822 70.6769 33.8822 44.3311 33.8822 42.3535H25.4116V72.0006Z" fill="#086CF9"/>
<path d="M72.0003 21.1765L64.0591 10.5882L72.0003 0C70.5744 0 45.777 0 44.4709 0V38.1176H38.1179V72H55.0591V38.1176H48.7062V21.1765H72.0003Z" fill="#086CF9"/>
<path d="M8.47059 50.8232H0V71.9997H8.47059C8.47059 71.0221 8.47059 51.7974 8.47059 50.8232Z" fill="#086CF9"/>
</svg>
