<svg width="80" height="80" viewBox="0 0 80 80" fill="none" xmlns="http://www.w3.org/2000/svg">
<g clip-path="url(#clip0_28_598)">
<path d="M24.6346 16.0338C23.9429 16.0338 23.382 16.5946 23.382 17.2865C23.382 18.806 22.1457 20.0423 20.6262 20.0423C19.1066 20.0423 17.8704 18.806 17.8704 17.2865C17.8704 15.767 19.1066 14.5307 20.6262 14.5307C21.3179 14.5307 21.8788 13.9699 21.8788 13.278C21.8788 12.5862 21.318 12.0254 20.6262 12.0254C17.7252 12.0254 15.3652 14.3855 15.3652 17.2863C15.3652 20.1871 17.7254 22.5473 20.6262 22.5473C23.527 22.5473 25.8871 20.1871 25.8871 17.2863C25.8873 16.5946 25.3263 16.0338 24.6346 16.0338Z" fill="#086CF9"/>
<path d="M24.6346 30.7311C23.9429 30.7311 23.382 31.2919 23.382 31.9837C23.382 33.5033 22.1457 34.7395 20.6262 34.7395C19.1066 34.7395 17.8704 33.5033 17.8704 31.9837C17.8704 30.4642 19.1066 29.228 20.6262 29.228C21.3179 29.228 21.8788 28.6672 21.8788 27.9753C21.8788 27.2834 21.318 26.7227 20.6262 26.7227C17.7252 26.7227 15.3652 29.0828 15.3652 31.9836C15.3652 34.8844 17.7254 37.2445 20.6262 37.2445C23.527 37.2445 25.8871 34.8844 25.8871 31.9836C25.8873 31.292 25.3263 30.7311 24.6346 30.7311Z" fill="#086CF9"/>
<path d="M39.3318 33.4033H29.979C29.2873 33.4033 28.7263 33.9641 28.7263 34.656C28.7263 35.3478 29.2871 35.9086 29.979 35.9086H39.3318C40.0235 35.9086 40.5844 35.3478 40.5844 34.656C40.5844 33.9641 40.0237 33.4033 39.3318 33.4033Z" fill="#086CF9"/>
<path d="M39.3318 28.0586H29.979C29.2873 28.0586 28.7263 28.6194 28.7263 29.3112C28.7263 30.0031 29.2871 30.5639 29.979 30.5639H39.3318C40.0235 30.5639 40.5844 30.0031 40.5844 29.3112C40.5844 28.6194 40.0237 28.0586 39.3318 28.0586Z" fill="#086CF9"/>
<path d="M36.6596 48.1006H29.979C29.2873 48.1006 28.7263 48.6614 28.7263 49.3532C28.7263 50.0451 29.2871 50.6059 29.979 50.6059H36.6596C37.3513 50.6059 37.9123 50.0451 37.9123 49.3532C37.9123 48.6614 37.3513 48.1006 36.6596 48.1006Z" fill="#086CF9"/>
<path d="M39.3318 42.7559H29.979C29.2873 42.7559 28.7263 43.3166 28.7263 44.0085C28.7263 44.7004 29.2871 45.2612 29.979 45.2612H39.3318C40.0235 45.2612 40.5844 44.7004 40.5844 44.0085C40.5844 43.3166 40.0237 42.7559 39.3318 42.7559Z" fill="#086CF9"/>
<path d="M51.3569 18.7061H29.979C29.2873 18.7061 28.7263 19.2668 28.7263 19.9587C28.7263 20.6506 29.2871 21.2114 29.979 21.2114H51.3568C52.0485 21.2114 52.6094 20.6506 52.6094 19.9587C52.6094 19.2668 52.0487 18.7061 51.3569 18.7061Z" fill="#086CF9"/>
<path d="M46.0124 13.3613H29.979C29.2873 13.3613 28.7263 13.9221 28.7263 14.614C28.7263 15.3059 29.2871 15.8666 29.979 15.8666H46.0124C46.7041 15.8666 47.2651 15.3059 47.2651 14.614C47.2651 13.9221 46.7043 13.3613 46.0124 13.3613Z" fill="#086CF9"/>
<path d="M24.6346 45.4284C23.9429 45.4284 23.382 45.9891 23.382 46.681C23.382 48.2005 22.1457 49.4368 20.6262 49.4368C19.1066 49.4368 17.8704 48.2005 17.8704 46.681C17.8704 45.1615 19.1066 43.9252 20.6262 43.9252C21.3179 43.9252 21.8788 43.3645 21.8788 42.6726C21.8788 41.9807 21.318 41.4199 20.6262 41.4199C17.7252 41.4199 15.3652 43.7801 15.3652 46.6809C15.3652 49.5816 17.7254 51.9418 20.6262 51.9418C23.527 51.9418 25.8871 49.5816 25.8871 46.6809C25.8873 45.9891 25.3263 45.4284 24.6346 45.4284Z" fill="#086CF9"/>
<path d="M56.7014 0H11.2735C9.10941 0 7.34863 1.76062 7.34863 3.92484V60.0417C7.34863 62.2059 9.10926 63.9666 11.2735 63.9666H33.9875C34.6793 63.9666 35.2402 63.4058 35.2402 62.7139C35.2402 62.0222 34.6794 61.4613 33.9875 61.4613H11.2735C10.4907 61.4613 9.85379 60.8244 9.85379 60.0416V3.92484C9.85379 3.14203 10.4907 2.50516 11.2735 2.50516H56.7014C57.4843 2.50516 58.1211 3.14203 58.1211 3.92484V45.3447C58.1211 46.0364 58.6819 46.5973 59.3738 46.5973C60.0655 46.5973 60.6264 46.0366 60.6264 45.3447V3.92484C60.6263 1.76062 58.8657 0 56.7014 0Z" fill="#086CF9"/>
<path d="M68.5278 50.7955C67.3636 50.6794 66.2 51.0094 65.2791 51.7086C64.5455 50.4776 63.2945 49.6044 61.8472 49.4594C60.6827 49.3434 59.5192 49.6734 58.5984 50.3725C57.8648 49.1415 56.6139 48.2683 55.1666 48.1233C54.2775 48.0345 53.3897 48.2058 52.6095 48.6028V32.6509C52.6095 31.3558 52.0586 30.1142 51.0975 29.2447C50.1373 28.3759 48.8434 27.9519 47.5473 28.0816C45.235 28.3131 43.4237 30.4039 43.4237 32.8415V48.8337L39.7416 52.5159C37.7848 54.4726 36.995 57.2489 37.6289 59.9426L40.4244 71.8234C41.557 76.6376 45.8022 79.9998 50.7478 79.9998H62.0458C67.8936 79.9998 72.6512 75.2423 72.6512 69.3944V55.5558C72.6514 53.1178 70.8402 51.027 68.5278 50.7955ZM70.1461 69.394C70.1461 73.8605 66.5123 77.4942 62.0459 77.4942H50.748C46.9706 77.4942 43.7281 74.9262 42.863 71.2492L40.0675 59.3684C39.6338 57.5255 40.1742 55.6258 41.513 54.287L43.4237 52.3762V56.7009C43.4237 57.3926 43.9845 57.9536 44.6764 57.9536C45.3683 57.9536 45.9291 57.3928 45.9291 56.7009V32.8414C45.9291 31.675 46.7495 30.6791 47.7972 30.5744C48.3989 30.5139 48.9744 30.7017 49.4169 31.1023C49.8539 31.4978 50.1045 32.0623 50.1045 32.6511V54.697C50.1045 55.3887 50.6653 55.9497 51.3572 55.9497C52.0491 55.9497 52.6098 55.3889 52.6098 54.697V52.6928C52.6098 52.104 52.8603 51.5395 53.2975 51.1441C53.7403 50.7434 54.3155 50.5555 54.9172 50.6161C55.9647 50.7209 56.7853 51.7169 56.7853 52.8833V56.0328C56.7853 56.7245 57.3461 57.2855 58.038 57.2855C58.7297 57.2855 59.2906 56.7247 59.2906 56.0328V54.0286C59.2906 53.4398 59.5411 52.8753 59.9783 52.4798C60.4211 52.0792 60.9964 51.8914 61.598 51.9519C62.6455 52.0567 63.4661 53.0526 63.4661 54.219V57.3687C63.4661 58.0605 64.0269 58.6214 64.7188 58.6214C65.4105 58.6214 65.9714 58.0606 65.9714 57.3687V55.3645C65.9714 54.7758 66.2219 54.2112 66.6591 53.8158C67.1019 53.4153 67.6767 53.2272 68.2788 53.288C69.3263 53.3926 70.1469 54.3886 70.1469 55.555V69.394H70.1461Z" fill="#086CF9"/>
</g>
<defs>
<clipPath id="clip0_28_598">
<rect width="80" height="80" fill="white"/>
</clipPath>
</defs>
</svg>
