<svg width="80" height="80" viewBox="0 0 80 80" fill="none" xmlns="http://www.w3.org/2000/svg">
<g clip-path="url(#clip0_28_647)">
<path d="M55.5336 80.0071C57.3409 80.0022 58.9225 78.7916 59.399 77.0483L63.0851 63.2865L77.0446 59.5547C79.1717 58.9762 80.4311 56.7882 79.8642 54.6587L72.6264 27.6823L73.1993 25.5497C73.7173 23.5856 72.68 21.5452 70.7879 20.8056L67.529 8.64001C66.9456 6.51477 64.763 5.25354 62.6305 5.8088L38.824 12.1949L18.8616 6.84305C18.0433 6.6185 17.1744 6.66549 16.3855 6.97667L11.3985 1.99827C9.7175 0.30199 7.25789 -0.36554 4.95021 0.248905C2.64254 0.863349 0.840087 2.66519 0.225033 4.97287C-0.390022 7.28054 0.276287 9.74076 1.97196 11.4218L11.0617 20.5115L0.171338 61.1662C-0.398564 63.2981 0.862054 65.4892 2.99156 66.0689L54.4957 79.8686C54.8337 79.9607 55.1827 80.0077 55.5336 80.0071ZM77.285 55.3475C77.4736 56.0547 77.0568 56.7821 76.3515 56.9767L63.8832 60.3089L71.2425 32.8358L77.285 55.3475ZM63.3127 8.38678C63.6562 8.29282 64.0229 8.34041 64.331 8.51858C64.6392 8.69614 64.8631 8.99025 64.9534 9.33438L67.7968 19.9557L43.9732 13.5733L63.3127 8.38678ZM40.386 40.4172L33.6564 38.1742L38.143 33.6833L40.386 40.4123V40.4172ZM34.961 33.1025L23.6508 21.7911C23.1303 21.2706 22.2858 21.2706 21.7654 21.7917C21.2449 22.3122 21.2455 23.1566 21.7666 23.6771L33.0774 34.9855L31.1932 36.8721L12.3412 18.0202L14.2261 16.1354L17.9951 19.9062C18.3325 20.2431 18.8231 20.3749 19.2838 20.251C19.7439 20.1277 20.1033 19.7683 20.2265 19.3083C20.3498 18.8482 20.2186 18.357 19.8818 18.0202L16.1121 14.2505L17.9969 12.3645L36.8458 31.2164L34.961 33.1025ZM8.57037 14.2505L14.2261 8.59485L16.1109 10.4797L10.4564 16.1354L8.57037 14.2505ZM2.68647 6.71003C2.68647 5.09246 3.66092 3.63353 5.15523 3.01482C6.65016 2.3961 8.37023 2.73841 9.5137 3.88249L12.3412 6.71003L6.68555 12.3657L3.85678 9.53696C3.10505 8.78889 2.68342 7.77112 2.68647 6.71003ZM2.7481 61.866L13.2406 22.6905L30.2492 39.699C30.3883 39.8351 30.5555 39.9382 30.7398 40.0017C30.7502 40.0017 30.7581 40.0163 30.7703 40.02L39.5507 42.9525C39.8247 43.0428 40.1121 43.0873 40.4007 43.0861C40.9028 43.0843 41.394 42.9397 41.8163 42.6688L57.145 46.785C57.2579 46.8161 57.3745 46.832 57.4916 46.8314C58.161 46.8314 58.726 46.3353 58.8126 45.672C58.8999 45.0088 58.4819 44.3839 57.8358 44.2113L43.0403 40.239C43.0269 40.0127 42.986 39.7887 42.9176 39.5721L39.9851 30.7911C39.9851 30.7789 39.9705 30.771 39.965 30.7588C39.9015 30.5763 39.7984 30.4098 39.6636 30.2713L19.0617 9.66083L69.6749 23.2183C70.0173 23.3098 70.3089 23.5331 70.4859 23.84C70.6628 24.1463 70.7104 24.5106 70.6189 24.8529L56.8253 76.3509C56.7344 76.6932 56.5105 76.9855 56.2035 77.1625C55.8966 77.3394 55.5317 77.387 55.19 77.2949L3.69143 63.5001C3.34973 63.4085 3.05807 63.1852 2.88051 62.8789C2.70356 62.572 2.65596 62.2077 2.7481 61.866Z" fill="#086CF9"/>
<path d="M61.6344 31.375C62.3031 31.3744 62.8682 30.8784 62.9554 30.2151C63.0421 29.5524 62.6241 28.927 61.9785 28.7543L43.0198 23.6746C42.5549 23.5361 42.0521 23.6612 41.7061 24.0011C41.3602 24.3403 41.2259 24.8413 41.3553 25.3081C41.4846 25.7755 41.8581 26.1355 42.3291 26.2484L61.289 31.3293C61.4019 31.3598 61.5179 31.375 61.6344 31.375Z" fill="#086CF9"/>
<path d="M59.5628 39.1003C60.2316 39.0997 60.7966 38.6042 60.8839 37.941C60.9711 37.2777 60.5531 36.6529 59.907 36.4796L47.0171 33.0315C46.5539 32.8997 46.056 33.0272 45.7137 33.3665C45.3714 33.7051 45.239 34.2024 45.3665 34.6668C45.4941 35.1311 45.862 35.4905 46.3294 35.6064L59.2193 39.0551C59.331 39.085 59.4469 39.1003 59.5628 39.1003Z" fill="#086CF9"/>
<path d="M18.4331 41.925L14.5676 40.8895C14.1039 40.754 13.6029 40.8797 13.2588 41.219C12.9147 41.5576 12.7804 42.0561 12.9086 42.5223C13.0367 42.9879 13.4065 43.3479 13.8757 43.4632L17.7411 44.5005C17.8546 44.5304 17.9706 44.5456 18.0877 44.5456C18.7571 44.5463 19.3227 44.0502 19.41 43.3869C19.4972 42.7237 19.0792 42.0982 18.4331 41.925Z" fill="#086CF9"/>
<path d="M56.7123 53.5597C56.9027 52.8488 56.4805 52.1191 55.7702 51.9281L26.1561 43.9946C25.469 43.8604 24.7954 44.2814 24.6136 44.9575C24.4323 45.6335 24.8052 46.3352 25.4672 46.5628L55.0795 54.4969C55.1924 54.528 55.3083 54.5433 55.4249 54.5433C56.0271 54.5439 56.5549 54.1406 56.7123 53.5597Z" fill="#086CF9"/>
<path d="M16.3612 49.6493L12.4957 48.6133C11.7861 48.4272 11.0594 48.8494 10.8696 49.5578C10.6799 50.2668 11.099 50.996 11.8068 51.1888L15.6723 52.223C15.7846 52.2542 15.9005 52.27 16.0177 52.2694C16.6864 52.27 17.252 51.774 17.3393 51.1107C17.4272 50.4474 17.0092 49.822 16.3624 49.6493H16.3612Z" fill="#086CF9"/>
<path d="M53.6993 59.6555L24.087 51.7202C23.622 51.5823 23.1192 51.7074 22.7733 52.0466C22.4273 52.3865 22.2931 52.8868 22.4224 53.3542C22.5518 53.821 22.9252 54.181 23.3963 54.2945L53.0092 62.2292C53.1221 62.2603 53.2386 62.2762 53.3558 62.2762C54.0245 62.2756 54.5895 61.7795 54.6768 61.1162C54.7634 60.453 54.3455 59.8282 53.6993 59.6555Z" fill="#086CF9"/>
</g>
<defs>
<clipPath id="clip0_28_647">
<rect width="80" height="80" fill="white"/>
</clipPath>
</defs>
</svg>
